<?xml version="1.0" standalone="no"?>
<!DOCTYPE svg PUBLIC "-//W3C//DTD SVG 20010904//EN"
 "http://www.w3.org/TR/2001/REC-SVG-20010904/DTD/svg10.dtd">
<svg version="1.0" xmlns="http://www.w3.org/2000/svg"
 width="1024.000000pt" height="1024.000000pt" viewBox="0 0 1024.000000 1024.000000"
 preserveAspectRatio="xMidYMid meet">

<g transform="translate(0.000000,1024.000000) scale(0.100000,-0.100000)"
fill="#000000" stroke="none">
<path d="M3242 7864 c-65 -17 -102 -36 -170 -86 -105 -78 -166 -185 -183 -323
-4 -38 -8 -607 -9 -1263 0 -1061 2 -1201 16 -1265 29 -131 110 -250 214 -317
91 -58 120 -63 405 -69 l260 -6 -100 -105 c-55 -58 -215 -223 -355 -368 -140
-145 -263 -278 -272 -295 -22 -42 -23 -114 0 -155 24 -45 449 -468 489 -487
66 -32 106 -11 241 119 l72 70 0 -254 c0 -237 1 -257 21 -297 23 -48 62 -80
114 -94 l34 -10 3 -184 3 -185 -217 0 -218 0 -30 -27 c-58 -52 -48 -153 17
-182 33 -15 3056 -16 3084 -1 24 13 49 61 49 95 0 38 -26 83 -60 100 -23 12
-70 15 -235 15 l-205 0 0 184 0 184 26 6 c51 13 105 56 125 99 17 38 19 68 19
301 l0 258 106 -101 106 -101 60 0 61 0 229 227 c229 228 268 277 268 338 0
66 -40 115 -389 473 -190 194 -350 360 -354 368 -7 12 29 14 240 14 139 0 266
5 288 11 149 38 270 153 333 315 l27 69 3 1134 c1 624 -2 1206 -7 1293 -8 151
-10 161 -44 232 -60 127 -182 228 -326 270 -49 14 -236 16 -1870 15 -1535 0
-1824 -3 -1869 -15z m3684 -296 c44 -24 88 -70 110 -115 18 -37 19 -80 19
-1253 l0 -1215 -22 -40 c-11 -22 -34 -52 -50 -67 -65 -62 53 -58 -1872 -58
l-1757 0 -55 28 c-35 18 -64 42 -84 70 l-30 44 -3 1211 c-2 881 0 1223 9 1253
15 58 60 108 122 138 l52 25 1765 -2 c1648 -2 1767 -3 1796 -19z m-854 -3150
c3 -93 3 -625 -1 -1345 l-1 -123 -953 0 -954 0 -7 373 c-8 403 -7 1057 2 1150
l5 57 953 0 953 0 3 -112z m-2222 -471 l0 -234 -127 -126 c-69 -70 -129 -127
-132 -127 -4 0 -58 52 -121 115 l-115 115 75 77 c216 223 405 413 412 413 4 0
8 -105 8 -233z m2787 -9 l242 -243 -114 -119 c-62 -65 -117 -117 -122 -115 -5
2 -66 63 -136 135 l-127 131 0 227 c0 124 3 226 8 226 4 0 116 -109 249 -242z
m-1937 -1433 l0 -155 -170 -1 c-93 -1 -176 -2 -182 -3 -10 -1 -14 38 -16 157
l-3 157 186 0 185 0 0 -155z m520 -30 l0 -185 -105 0 -105 0 0 185 0 185 105
0 105 0 0 -185z m680 30 l0 -155 -185 0 -185 0 0 148 c0 82 3 152 7 155 3 4
87 7 185 7 l178 0 0 -155z"/>
<path d="M4131 6629 c-174 -34 -311 -181 -342 -366 -10 -60 -9 -82 5 -146 34
-152 109 -255 233 -318 61 -31 76 -34 170 -37 126 -5 190 13 272 73 218 161
243 488 52 675 -107 105 -247 147 -390 119z m27 -156 c39 -29 72 -91 72 -135
0 -40 -35 -104 -72 -131 -17 -12 -48 -22 -80 -24 -62 -5 -99 14 -143 71 -24
32 -27 43 -23 95 5 65 31 107 83 134 60 32 111 28 163 -10z"/>
<path d="M5860 6607 c-112 -47 -180 -107 -229 -204 -27 -53 -51 -154 -51 -214
0 -95 53 -221 128 -302 88 -93 167 -127 302 -127 190 0 306 73 392 248 36 72
42 93 46 167 8 159 -60 298 -188 383 -81 55 -143 72 -254 72 -72 0 -103 -5
-146 -23z m87 -126 c17 -11 44 -40 58 -66 36 -60 29 -115 -21 -173 -63 -75
-155 -78 -231 -8 -30 27 -36 41 -41 84 -6 65 9 101 59 147 34 31 46 35 92 35
34 0 63 -7 84 -19z"/>
<path d="M4943 5713 c-31 -6 -81 -66 -88 -107 -9 -44 18 -102 56 -121 22 -12
71 -15 213 -15 183 0 185 0 215 26 33 27 53 80 44 116 -10 42 -52 87 -91 98
-35 9 -302 12 -349 3z"/>
<path d="M2783 2256 c-25 -21 -28 -31 -28 -81 0 -50 3 -60 28 -81 28 -24 29
-24 261 -24 220 0 235 1 259 20 47 37 48 120 2 166 l-24 24 -235 0 c-234 0
-235 0 -263 -24z"/>
<path d="M6921 2256 c-35 -37 -39 -102 -9 -146 l24 -35 240 -3 241 -2 26 26
c32 32 42 74 27 119 -20 61 -39 65 -298 65 l-229 0 -22 -24z"/>
</g>
</svg>
